<svg xmlns="http://www.w3.org/2000/svg" viewBox="0 0 48 48" fill="none">
  <circle cx="24" cy="24" r="22" fill="#10a37f"/>
  <path d="M24 10c-2.5 0-4.7 1.3-6 3.2l-.3.5c-.8 1.4-1.2 3-1.2 4.7 0 .8.1 1.5.3 2.2l-1.8 1c-.4.2-.6.7-.4 1.1l1.2 2.1c.2.4.7.5 1.1.3l1.8-1c1.2 1.4 2.9 2.4 4.8 2.7v2.1c0 .5.4.9.9.9h2.4c.5 0 .9-.4.9-.9v-2.1c1.9-.3 3.6-1.3 4.8-2.7l1.8 1c.4.2.9.1 1.1-.3l1.2-2.1c.2-.4.1-.9-.4-1.1l-1.8-1c.2-.7.3-1.4.3-2.2 0-1.7-.4-3.3-1.2-4.7l-.3-.5C28.7 11.3 26.5 10 24 10zm0 4a4.3 4.3 0 110 8.6 4.3 4.3 0 010-8.6z" fill="white" opacity="0.95"/>
  <text x="24" y="40" text-anchor="middle" fill="white" font-size="7" font-family="Arial, sans-serif" font-weight="bold">OpenAI</text>
</svg>
